# xmcd
#
# Track frame offsets:
# 150
# 21230
# 42235
#
# Disc length: 843 seconds
#
#
# Revision: 0
# Processed by: cddbd v1.5.1PL2 Copyright (c) Steve Scherf et al.
# Submitted via: FreeRIP 2.70 
#
DISCID=1d034903
DTITLE=Roger Whittaker - Two Hundred Thousend Souls (Maxi)
DYEAR=2005
DGENRE=Blues
TTITLE0=Two hundred thousend souls (Original English Version)
TTITLE1=So viele tausend Seelen (German Version)
TTITLE2=Two hundred thousend souls (Instrumental Version)
EXTD=
EXTT0=
EXTT1=
EXTT2=
PLAYORDER=
